<svg width="80" height="67" viewBox="0 0 80 67" fill="none" xmlns="http://www.w3.org/2000/svg">
<g id="Chip">
<path id="Vector" d="M17.8862 0C8.14462 0 0 8.06436 0 17.7032V49.2998C0 58.9356 8.14769 67 17.8862 67H62.1169C71.8523 67 80 58.9356 80 49.2968V17.7032C80 8.06741 71.8523 0 62.1138 0H17.8862ZM17.8862 6.09091H62.1169C68.3785 6.09091 73.8462 11.5027 73.8462 17.7032V21.3182H55.3846C53.6769 21.3182 52.3077 19.963 52.3077 18.2727C52.3077 16.5825 53.6769 15.2273 55.3846 15.2273C56.2007 15.2273 56.9833 14.9064 57.5603 14.3353C58.1374 13.7641 58.4615 12.9895 58.4615 12.1818C58.4615 11.3741 58.1374 10.5995 57.5603 10.0284C56.9833 9.45722 56.2007 9.13636 55.3846 9.13636C50.3231 9.13636 46.1538 13.263 46.1538 18.2727C46.1538 22.2075 48.7508 25.5635 52.3077 26.8396V41.9694C48.6215 44.4484 46.1538 48.6085 46.1538 53.2955C46.1538 56.1064 47.0554 58.7194 48.5569 60.9091H31.4462C33.0015 58.6678 33.8379 56.0145 33.8462 53.2955C33.8462 48.6115 31.3785 44.4484 27.6923 41.9694V26.8365C31.2492 25.5635 33.8462 22.2075 33.8462 18.2727C33.8462 13.263 29.6769 9.13636 24.6154 9.13636H18.4615C18.3652 9.13188 18.2687 9.13188 18.1723 9.13636C18.077 9.13198 17.9815 9.13198 17.8862 9.13636C17.0701 9.21188 16.3178 9.60517 15.7947 10.2297C15.2716 10.8542 15.0206 11.6589 15.0969 12.4666C15.1732 13.2743 15.5706 14.0189 16.2016 14.5366C16.8326 15.0544 17.6455 15.3028 18.4615 15.2273H24.6154C26.3231 15.2273 27.6923 16.5825 27.6923 18.2727C27.6923 19.963 26.3231 21.3182 24.6154 21.3182H6.15385V17.7002C6.15385 11.5027 11.6215 6.09091 17.8862 6.09091ZM6.15385 27.4091H21.5385V39.5909H6.15385V27.4091ZM58.4615 27.4091H73.8462V39.5909H58.4615V27.4091ZM6.15385 45.6818H20C24.12 45.6818 27.6923 49.2176 27.6923 53.2955C27.6923 57.3733 24.12 60.9091 20 60.9091H17.8831C11.6215 60.9091 6.15385 55.4973 6.15385 49.2968V45.6818ZM60 45.6818H73.8462V49.2998C73.8462 55.4973 68.3785 60.9091 62.1138 60.9091H60C55.88 60.9091 52.3077 57.3733 52.3077 53.2955C52.3077 49.2176 55.88 45.6818 60 45.6818Z" fill="#ECFBFF"/>
</g>
</svg>
