<svg width="28" height="28" viewBox="0 0 28 28" fill="none" xmlns="http://www.w3.org/2000/svg">
<g id="mdi:information">
<path id="Vector" d="M15.1666 10.5H12.8333V8.16668H15.1666M15.1666 19.8333H12.8333V12.8333H15.1666M13.9999 2.33334C12.4678 2.33334 10.9507 2.63511 9.53528 3.22142C8.11981 3.80772 6.83369 4.66708 5.75034 5.75043C3.56242 7.93836 2.33325 10.9058 2.33325 14C2.33325 17.0942 3.56242 20.0617 5.75034 22.2496C6.83369 23.3329 8.11981 24.1923 9.53528 24.7786C10.9507 25.3649 12.4678 25.6667 13.9999 25.6667C17.0941 25.6667 20.0616 24.4375 22.2495 22.2496C24.4374 20.0617 25.6666 17.0942 25.6666 14C25.6666 12.4679 25.3648 10.9508 24.7785 9.53537C24.1922 8.1199 23.3328 6.83378 22.2495 5.75043C21.1661 4.66708 19.88 3.80772 18.4646 3.22142C17.0491 2.63511 15.532 2.33334 13.9999 2.33334Z" fill="#ECFBFF"/>
</g>
</svg>
