<svg width="22" height="22" viewBox="0 0 22 22" fill="none" xmlns="http://www.w3.org/2000/svg">
<g id="mdi:account-cash" clip-path="url(#clip0_20_27)">
<path id="Vector" d="M10.0833 7.33333C10.0833 9.35917 8.4425 11 6.41667 11C4.39083 11 2.75 9.35917 2.75 7.33333C2.75 5.3075 4.39083 3.66667 6.41667 3.66667C8.4425 3.66667 10.0833 5.3075 10.0833 7.33333ZM10.0833 13.4933V18.3333H0V16.5C0 14.4742 2.86917 12.8333 6.41667 12.8333C7.79167 12.8333 9.0475 13.0808 10.0833 13.4933ZM22 18.3333H11.9167V2.75H22V18.3333ZM14.6667 10.5417C14.6667 9.93388 14.9081 9.35098 15.3379 8.92121C15.7677 8.49144 16.3505 8.25 16.9583 8.25C17.5661 8.25 18.149 8.49144 18.5788 8.92121C19.0086 9.35098 19.25 9.93388 19.25 10.5417C19.25 11.1495 19.0086 11.7323 18.5788 12.1621C18.149 12.5919 17.5661 12.8333 16.9583 12.8333C16.3505 12.8333 15.7677 12.5919 15.3379 12.1621C14.9081 11.7323 14.6667 11.1495 14.6667 10.5417ZM20.1667 6.41667C19.6804 6.41667 19.2141 6.22351 18.8703 5.8797C18.5265 5.53588 18.3333 5.06956 18.3333 4.58333H15.5833C15.5833 5.60083 14.7675 6.41667 13.75 6.41667V14.6667C14.2362 14.6667 14.7025 14.8598 15.0464 15.2036C15.3902 15.5475 15.5833 16.0138 15.5833 16.5H18.3333C18.3333 15.4917 19.1583 14.6667 20.1667 14.6667V6.41667Z" fill="#01151E"/>
</g>
<defs>
<clipPath id="clip0_20_27">
<rect width="22" height="22" fill="white"/>
</clipPath>
</defs>
</svg>
