<svg width="30" height="29" viewBox="0 0 30 29" fill="none" xmlns="http://www.w3.org/2000/svg">
<g id="mdi:money">
<path id="Vector" d="M4 7H26.5V21.5H4V7ZM15.25 10.625C16.2446 10.625 17.1984 11.0069 17.9017 11.6867C18.6049 12.3666 19 13.2886 19 14.25C19 15.2114 18.6049 16.1334 17.9017 16.8133C17.1984 17.4931 16.2446 17.875 15.25 17.875C14.2554 17.875 13.3016 17.4931 12.5983 16.8133C11.8951 16.1334 11.5 15.2114 11.5 14.25C11.5 13.2886 11.8951 12.3666 12.5983 11.6867C13.3016 11.0069 14.2554 10.625 15.25 10.625ZM9 9.41667C9 10.0576 8.73661 10.6723 8.26777 11.1255C7.79893 11.5787 7.16304 11.8333 6.5 11.8333V16.6667C7.16304 16.6667 7.79893 16.9213 8.26777 17.3745C8.73661 17.8277 9 18.4424 9 19.0833H21.5C21.5 18.4424 21.7634 17.8277 22.2322 17.3745C22.7011 16.9213 23.337 16.6667 24 16.6667V11.8333C23.337 11.8333 22.7011 11.5787 22.2322 11.1255C21.7634 10.6723 21.5 10.0576 21.5 9.41667H9Z" fill="#ECFBFF"/>
</g>
</svg>
