<svg width="28" height="28" viewBox="0 0 28 28" fill="none" xmlns="http://www.w3.org/2000/svg">
<g id="material-symbols:print">
<path id="Vector" d="M21 8.16667H7.00004V3.5H21V8.16667ZM21 14.5833C21.3306 14.5833 21.6079 14.4713 21.8319 14.2473C22.0559 14.0233 22.1675 13.7464 22.1667 13.4167C22.1667 13.0861 22.0547 12.8092 21.8307 12.586C21.6067 12.3628 21.3298 12.2508 21 12.25C20.6695 12.25 20.3926 12.362 20.1694 12.586C19.9462 12.81 19.8342 13.0869 19.8334 13.4167C19.8334 13.7472 19.9454 14.0245 20.1694 14.2485C20.3934 14.4725 20.6703 14.5841 21 14.5833ZM18.6667 22.1667V17.5H9.33337V22.1667H18.6667ZM21 24.5H7.00004V19.8333H2.33337V12.8333C2.33337 11.8417 2.67365 11.0106 3.35421 10.3402C4.03476 9.66972 4.86115 9.33411 5.83337 9.33333H22.1667C23.1584 9.33333 23.9898 9.66894 24.661 10.3402C25.3323 11.0114 25.6675 11.8424 25.6667 12.8333V19.8333H21V24.5Z" fill="#01151E"/>
</g>
</svg>
